<svg id="visual" viewBox="0 0 1920 1080" width="1920" height="1080" xmlns="http://www.w3.org/2000/svg" xmlns:xlink="http://www.w3.org/1999/xlink" version="1.1"><g stroke-width="1" stroke-linejoin="bevel"><path d="M992 624L1197 825L1210 669Z" fill="#7c7c7c" stroke="#7c7c7c"></path><path d="M992 624L937 865L1197 825Z" fill="#000000" stroke="#000000"></path><path d="M1197 825L1412 687L1210 669Z" fill="#585858" stroke="#585858"></path><path d="M1210 669L1216 408L992 624Z" fill="#6a6a6a" stroke="#6a6a6a"></path><path d="M700 650L759 859L937 865Z" fill="#6a6a6a" stroke="#6a6a6a"></path><path d="M1443 426L1216 408L1210 669Z" fill="#000000" stroke="#000000"></path><path d="M923 1080L1235 1080L937 865Z" fill="#b7b7b7" stroke="#b7b7b7"></path><path d="M937 865L1235 1080L1197 825Z" fill="#464646" stroke="#464646"></path><path d="M1197 825L1482 828L1412 687Z" fill="#161616" stroke="#161616"></path><path d="M759 859L923 1080L937 865Z" fill="#363636" stroke="#363636"></path><path d="M1216 408L920 385L992 624Z" fill="#a3a3a3" stroke="#a3a3a3"></path><path d="M992 624L700 650L937 865Z" fill="#363636" stroke="#363636"></path><path d="M920 385L700 650L992 624Z" fill="#909090" stroke="#909090"></path><path d="M1235 1080L1482 828L1197 825Z" fill="#a3a3a3" stroke="#a3a3a3"></path><path d="M1632 620L1443 426L1412 687Z" fill="#363636" stroke="#363636"></path><path d="M1412 687L1443 426L1210 669Z" fill="#464646" stroke="#464646"></path><path d="M759 859L749 1080L923 1080Z" fill="#161616" stroke="#161616"></path><path d="M503 1080L749 1080L759 859Z" fill="#262626" stroke="#262626"></path><path d="M920 385L672 463L700 650Z" fill="#6a6a6a" stroke="#6a6a6a"></path><path d="M700 650L506 666L759 859Z" fill="#464646" stroke="#464646"></path><path d="M1216 408L943 242L920 385Z" fill="#7c7c7c" stroke="#7c7c7c"></path><path d="M920 385L705 240L672 463Z" fill="#a3a3a3" stroke="#a3a3a3"></path><path d="M1181 177L943 242L1216 408Z" fill="#585858" stroke="#585858"></path><path d="M1235 1080L1484 1080L1482 828Z" fill="#161616" stroke="#161616"></path><path d="M1482 828L1632 620L1412 687Z" fill="#909090" stroke="#909090"></path><path d="M1726 855L1632 620L1482 828Z" fill="#161616" stroke="#161616"></path><path d="M1443 235L1181 177L1216 408Z" fill="#262626" stroke="#262626"></path><path d="M672 463L506 666L700 650Z" fill="#7c7c7c" stroke="#7c7c7c"></path><path d="M1443 426L1443 235L1216 408Z" fill="#6a6a6a" stroke="#6a6a6a"></path><path d="M1636 415L1443 235L1443 426Z" fill="#464646" stroke="#464646"></path><path d="M693 0L705 240L943 242Z" fill="#262626" stroke="#262626"></path><path d="M943 242L705 240L920 385Z" fill="#7c7c7c" stroke="#7c7c7c"></path><path d="M672 463L498 455L506 666Z" fill="#a3a3a3" stroke="#a3a3a3"></path><path d="M1632 620L1636 415L1443 426Z" fill="#b7b7b7" stroke="#b7b7b7"></path><path d="M705 240L498 455L672 463Z" fill="#6a6a6a" stroke="#6a6a6a"></path><path d="M1672 1080L1726 855L1482 828Z" fill="#7c7c7c" stroke="#7c7c7c"></path><path d="M1632 620L1920 441L1636 415Z" fill="#363636" stroke="#363636"></path><path d="M235 636L433 863L506 666Z" fill="#6a6a6a" stroke="#6a6a6a"></path><path d="M506 666L433 863L759 859Z" fill="#a3a3a3" stroke="#a3a3a3"></path><path d="M433 863L503 1080L759 859Z" fill="#7c7c7c" stroke="#7c7c7c"></path><path d="M1484 1080L1672 1080L1482 828Z" fill="#262626" stroke="#262626"></path><path d="M1401 0L1178 0L1181 177Z" fill="#a3a3a3" stroke="#a3a3a3"></path><path d="M1181 177L982 0L943 242Z" fill="#909090" stroke="#909090"></path><path d="M1178 0L982 0L1181 177Z" fill="#6a6a6a" stroke="#6a6a6a"></path><path d="M1443 235L1401 0L1181 177Z" fill="#6a6a6a" stroke="#6a6a6a"></path><path d="M1671 0L1401 0L1443 235Z" fill="#a3a3a3" stroke="#a3a3a3"></path><path d="M1920 441L1695 206L1636 415Z" fill="#a3a3a3" stroke="#a3a3a3"></path><path d="M1636 415L1695 206L1443 235Z" fill="#262626" stroke="#262626"></path><path d="M982 0L693 0L943 242Z" fill="#6a6a6a" stroke="#6a6a6a"></path><path d="M705 240L436 176L498 455Z" fill="#464646" stroke="#464646"></path><path d="M1726 855L1920 654L1632 620Z" fill="#909090" stroke="#909090"></path><path d="M1920 842L1920 654L1726 855Z" fill="#6a6a6a" stroke="#6a6a6a"></path><path d="M1920 1080L1920 842L1726 855Z" fill="#7c7c7c" stroke="#7c7c7c"></path><path d="M268 426L235 636L498 455Z" fill="#585858" stroke="#585858"></path><path d="M498 455L235 636L506 666Z" fill="#464646" stroke="#464646"></path><path d="M433 863L284 1080L503 1080Z" fill="#b7b7b7" stroke="#b7b7b7"></path><path d="M504 0L436 176L705 240Z" fill="#909090" stroke="#909090"></path><path d="M221 878L284 1080L433 863Z" fill="#585858" stroke="#585858"></path><path d="M436 176L268 426L498 455Z" fill="#7c7c7c" stroke="#7c7c7c"></path><path d="M235 636L221 878L433 863Z" fill="#909090" stroke="#909090"></path><path d="M1920 654L1920 441L1632 620Z" fill="#6a6a6a" stroke="#6a6a6a"></path><path d="M1672 1080L1920 1080L1726 855Z" fill="#000000" stroke="#000000"></path><path d="M693 0L504 0L705 240Z" fill="#a3a3a3" stroke="#a3a3a3"></path><path d="M436 176L222 188L268 426Z" fill="#585858" stroke="#585858"></path><path d="M1695 206L1671 0L1443 235Z" fill="#6a6a6a" stroke="#6a6a6a"></path><path d="M1920 0L1671 0L1695 206Z" fill="#6a6a6a" stroke="#6a6a6a"></path><path d="M1920 441L1920 237L1695 206Z" fill="#262626" stroke="#262626"></path><path d="M0 414L0 616L235 636Z" fill="#6a6a6a" stroke="#6a6a6a"></path><path d="M235 636L0 867L221 878Z" fill="#363636" stroke="#363636"></path><path d="M201 0L222 188L436 176Z" fill="#909090" stroke="#909090"></path><path d="M0 414L235 636L268 426Z" fill="#6a6a6a" stroke="#6a6a6a"></path><path d="M221 878L0 1080L284 1080Z" fill="#909090" stroke="#909090"></path><path d="M0 616L0 867L235 636Z" fill="#6a6a6a" stroke="#6a6a6a"></path><path d="M1920 237L1920 0L1695 206Z" fill="#161616" stroke="#161616"></path><path d="M0 257L0 414L268 426Z" fill="#b7b7b7" stroke="#b7b7b7"></path><path d="M0 867L0 1080L221 878Z" fill="#363636" stroke="#363636"></path><path d="M504 0L201 0L436 176Z" fill="#a3a3a3" stroke="#a3a3a3"></path><path d="M222 188L0 257L268 426Z" fill="#161616" stroke="#161616"></path><path d="M0 0L0 257L222 188Z" fill="#262626" stroke="#262626"></path><path d="M201 0L0 0L222 188Z" fill="#7c7c7c" stroke="#7c7c7c"></path></g></svg>